<svg width="16" height="17" viewBox="0 0 16 17" fill="none" xmlns="http://www.w3.org/2000/svg">
<path d="M2.55513 3.16732H5.54843L6.51324 5.57934L4.96332 6.61262C4.77785 6.73626 4.66645 6.94442 4.66645 7.16732C4.66814 7.22974 4.66645 7.16798 4.66645 7.16798L4.66645 7.16868L4.66646 7.17018L4.66648 7.17354L4.66658 7.18176C4.66667 7.18791 4.66684 7.19537 4.66712 7.20411C4.66769 7.22159 4.66871 7.24418 4.67053 7.27156C4.67418 7.32629 4.68106 7.40028 4.69398 7.49077C4.71982 7.67163 4.76997 7.91939 4.86733 8.21147C5.06282 8.79794 5.44694 9.55728 6.19505 10.3054C6.94316 11.0535 7.7025 11.4376 8.28897 11.6331C8.58104 11.7305 8.82881 11.7806 9.00967 11.8065C9.10016 11.8194 9.17414 11.8263 9.22888 11.8299C9.25625 11.8317 9.27885 11.8327 9.29632 11.8333C9.30506 11.8336 9.31253 11.8338 9.31867 11.8339L9.3269 11.834L9.33026 11.834L9.33175 11.834L9.33245 11.834C9.33245 11.834 9.40687 11.8299 9.33312 11.834C9.58563 11.834 9.81647 11.6913 9.9294 11.4655L10.3759 10.5725L13.3331 11.0654V13.9453C11.9257 14.1488 8.12472 14.3494 5.13786 11.3626C2.15099 8.37571 2.3516 4.57472 2.55513 3.16732ZM6.04888 7.49137L7.25284 6.68874C7.77746 6.33899 7.98537 5.66957 7.75121 5.08415L6.7864 2.67213C6.58391 2.16592 6.09364 1.83398 5.54843 1.83398H2.5203C1.91463 1.83398 1.34451 2.25476 1.24508 2.91192C1.01887 4.40699 0.710975 8.82132 4.19505 12.3054C7.67912 15.7895 12.0935 15.4816 13.5885 15.2554C14.2457 15.1559 14.6665 14.5858 14.6665 13.9801V11.0654C14.6665 10.4136 14.1952 9.85736 13.5523 9.75021L10.5951 9.25734C10.0177 9.16111 9.44507 9.4527 9.1833 9.97624L8.9523 10.4382C8.8797 10.4204 8.79865 10.3975 8.7106 10.3682C8.29707 10.2304 7.72308 9.94781 7.13786 9.36258C6.55263 8.77736 6.27008 8.20336 6.13224 7.78983C6.09499 7.67809 6.06818 7.57762 6.04888 7.49137Z" fill="#354052"/>
</svg>
